<?xml version='1.0' encoding='utf-8'?>
<mxfile>
  <diagram id="diagram" name="Swimlane Diagram">
    <mxGraphModel>
      <root>
        <mxCell id="0" />
        <mxCell id="1" parent="0" />
        <mxCell id="swimlane_container" value="Swimlane Diagram" style="swimlane;childLayout=stackLayout;resizeParent=1;resizeParentMax=0;horizontal=1;startSize=30;horizontalStack=0;" vertex="1" parent="1">
          <mxGeometry x="20" y="20" width="1200" height="800" as_="geometry" />
        </mxCell>
        <mxCell id="lane_0" value="企业用户" style="swimlane;startSize=30;horizontal=0;" vertex="1" parent="swimlane_container">
          <mxGeometry y="0" width="1200" height="200.0" as_="geometry" />
        </mxCell>
        <mxCell id="e1-1" value="登录企业管理平台" style="rounded=1;whiteSpace=wrap;html=1;fillColor=#f6ffed;strokeColor=#52c41a;" vertex="1" parent="lane_0">
          <mxGeometry x="80" y="15" width="160" height="60" as_="geometry" />
        </mxCell>
        <mxCell id="e1-2" value="进入员工月卡管理" style="rounded=1;whiteSpace=wrap;html=1;fillColor=#f6ffed;strokeColor=#52c41a;" vertex="1" parent="lane_0">
          <mxGeometry x="260" y="15" width="160" height="60" as_="geometry" />
        </mxCell>
        <mxCell id="e1-3" value="批量导入员工车辆信息" style="rounded=1;whiteSpace=wrap;html=1;fillColor=#f6ffed;strokeColor=#52c41a;" vertex="1" parent="lane_0">
          <mxGeometry x="440" y="15" width="160" height="60" as_="geometry" />
        </mxCell>
        <mxCell id="e1-4" value="提交月卡申请" style="rounded=1;whiteSpace=wrap;html=1;fillColor=#f6ffed;strokeColor=#52c41a;" vertex="1" parent="lane_0">
          <mxGeometry x="620" y="15" width="160" height="60" as_="geometry" />
        </mxCell>
        <mxCell id="e1-5" value="查看申请状态" style="rounded=1;whiteSpace=wrap;html=1;fillColor=#f6ffed;strokeColor=#52c41a;" vertex="1" parent="lane_0">
          <mxGeometry x="800" y="15" width="160" height="60" as_="geometry" />
        </mxCell>
        <mxCell id="e1-6" value="接收拒绝通知" style="rounded=1;whiteSpace=wrap;html=1;fillColor=#f6ffed;strokeColor=#52c41a;" vertex="1" parent="lane_0">
          <mxGeometry x="980" y="15" width="160" height="60" as_="geometry" />
        </mxCell>
        <mxCell id="e1-7" value="接收批准通知" style="rounded=1;whiteSpace=wrap;html=1;fillColor=#f6ffed;strokeColor=#52c41a;" vertex="1" parent="lane_0">
          <mxGeometry x="1160" y="15" width="160" height="60" as_="geometry" />
        </mxCell>
        <mxCell id="e1-8" value="选择支付方式" style="rounded=1;whiteSpace=wrap;html=1;fillColor=#f6ffed;strokeColor=#52c41a;" vertex="1" parent="lane_0">
          <mxGeometry x="1340" y="15" width="160" height="60" as_="geometry" />
        </mxCell>
        <mxCell id="e1-8-detail" value="● 预付款支付(指定费项)&#10;                    ● 预付款支付(全部费项)&#10;                    ● 微信支付&#10;                    ● 银行B2B/B2C支付" style="rounded=1;whiteSpace=wrap;html=1;fillColor=#f6ffed;strokeColor=#52c41a;" vertex="1" parent="lane_0">
          <mxGeometry x="1520" y="15" width="160" height="60" as_="geometry" />
        </mxCell>
        <mxCell id="e1-9" value="插入U盘密钥验证" style="rounded=1;whiteSpace=wrap;html=1;fillColor=#f6ffed;strokeColor=#52c41a;" vertex="1" parent="lane_0">
          <mxGeometry x="1700" y="15" width="160" height="60" as_="geometry" />
        </mxCell>
        <mxCell id="e1-10" value="完成企业账单支付" style="rounded=1;whiteSpace=wrap;html=1;fillColor=#f6ffed;strokeColor=#52c41a;" vertex="1" parent="lane_0">
          <mxGeometry x="1880" y="15" width="160" height="60" as_="geometry" />
        </mxCell>
        <mxCell id="e1-11" value="管理企业月卡列表" style="rounded=1;whiteSpace=wrap;html=1;fillColor=#f6ffed;strokeColor=#52c41a;" vertex="1" parent="lane_0">
          <mxGeometry x="2060" y="15" width="160" height="60" as_="geometry" />
        </mxCell>
        <mxCell id="e1-12" value="选择/设置开票信息" style="rounded=1;whiteSpace=wrap;html=1;fillColor=#f6ffed;strokeColor=#52c41a;" vertex="1" parent="lane_0">
          <mxGeometry x="2240" y="15" width="160" height="60" as_="geometry" />
        </mxCell>
        <mxCell id="e1-13" value="申请开票" style="rounded=1;whiteSpace=wrap;html=1;fillColor=#f6ffed;strokeColor=#52c41a;" vertex="1" parent="lane_0">
          <mxGeometry x="2420" y="15" width="160" height="60" as_="geometry" />
        </mxCell>
        <mxCell id="lane_1" value="园区管理员" style="swimlane;startSize=30;horizontal=0;" vertex="1" parent="swimlane_container">
          <mxGeometry y="200.0" width="1200" height="200.0" as_="geometry" />
        </mxCell>
        <mxCell id="a1-1" value="接收月卡申请" style="rounded=1;whiteSpace=wrap;html=1;fillColor=#e6f7ff;strokeColor=#1890ff;" vertex="1" parent="lane_1">
          <mxGeometry x="80" y="15" width="160" height="60" as_="geometry" />
        </mxCell>
        <mxCell id="a1-2" value="核实申请信息" style="rounded=1;whiteSpace=wrap;html=1;fillColor=#e6f7ff;strokeColor=#1890ff;" vertex="1" parent="lane_1">
          <mxGeometry x="260" y="15" width="160" height="60" as_="geometry" />
        </mxCell>
        <mxCell id="a1-3" value="审批月卡申请" style="rounded=1;whiteSpace=wrap;html=1;fillColor=#e6f7ff;strokeColor=#1890ff;" vertex="1" parent="lane_1">
          <mxGeometry x="440" y="15" width="160" height="60" as_="geometry" />
        </mxCell>
        <mxCell id="lane_2" value="园区财务管理员" style="swimlane;startSize=30;horizontal=0;" vertex="1" parent="swimlane_container">
          <mxGeometry y="400.0" width="1200" height="200.0" as_="geometry" />
        </mxCell>
        <mxCell id="f1-1" value="复核月卡账单" style="rounded=1;whiteSpace=wrap;html=1;fillColor=#f9f0ff;strokeColor=#722ed1;" vertex="1" parent="lane_2">
          <mxGeometry x="80" y="15" width="160" height="60" as_="geometry" />
        </mxCell>
        <mxCell id="f1-2" value="推送账单通知" style="rounded=1;whiteSpace=wrap;html=1;fillColor=#f9f0ff;strokeColor=#722ed1;" vertex="1" parent="lane_2">
          <mxGeometry x="260" y="15" width="160" height="60" as_="geometry" />
        </mxCell>
        <mxCell id="f1-3" value="收款管理" style="rounded=1;whiteSpace=wrap;html=1;fillColor=#f9f0ff;strokeColor=#722ed1;" vertex="1" parent="lane_2">
          <mxGeometry x="440" y="15" width="160" height="60" as_="geometry" />
        </mxCell>
        <mxCell id="f1-4" value="审核开票申请" style="rounded=1;whiteSpace=wrap;html=1;fillColor=#f9f0ff;strokeColor=#722ed1;" vertex="1" parent="lane_2">
          <mxGeometry x="620" y="15" width="160" height="60" as_="geometry" />
        </mxCell>
        <mxCell id="f1-4-detail" value="● 确保租金与停车费分开开票&#10;                    ● 验证开票信息准确性" style="rounded=1;whiteSpace=wrap;html=1;fillColor=#f9f0ff;strokeColor=#722ed1;" vertex="1" parent="lane_2">
          <mxGeometry x="800" y="15" width="160" height="60" as_="geometry" />
        </mxCell>
        <mxCell id="f1-5" value="生成电子发票" style="rounded=1;whiteSpace=wrap;html=1;fillColor=#f9f0ff;strokeColor=#722ed1;" vertex="1" parent="lane_2">
          <mxGeometry x="980" y="15" width="160" height="60" as_="geometry" />
        </mxCell>
        <mxCell id="lane_3" value="系统" style="swimlane;startSize=30;horizontal=0;" vertex="1" parent="swimlane_container">
          <mxGeometry y="600.0" width="1200" height="200.0" as_="geometry" />
        </mxCell>
        <mxCell id="s1-1" value="创建月卡申请记录" style="rounded=1;whiteSpace=wrap;html=1;fillColor=#f5f5f5;strokeColor=#bfbfbf;" vertex="1" parent="lane_3">
          <mxGeometry x="80" y="15" width="160" height="60" as_="geometry" />
        </mxCell>
        <mxCell id="s1-2" value="通知管理员审核" style="rounded=1;whiteSpace=wrap;html=1;fillColor=#f5f5f5;strokeColor=#bfbfbf;" vertex="1" parent="lane_3">
          <mxGeometry x="260" y="15" width="160" height="60" as_="geometry" />
        </mxCell>
        <mxCell id="s1-3" value="计算月卡费用" style="rounded=1;whiteSpace=wrap;html=1;fillColor=#f5f5f5;strokeColor=#bfbfbf;" vertex="1" parent="lane_3">
          <mxGeometry x="440" y="15" width="160" height="60" as_="geometry" />
        </mxCell>
        <mxCell id="s1-4" value="应用企业优惠政策" style="rounded=1;whiteSpace=wrap;html=1;fillColor=#f5f5f5;strokeColor=#bfbfbf;" vertex="1" parent="lane_3">
          <mxGeometry x="620" y="15" width="160" height="60" as_="geometry" />
        </mxCell>
        <mxCell id="s1-4-detail" value="● A类企业优惠20%&#10;                    ● B类企业优惠15%&#10;                    ● C类企业优惠10%" style="rounded=1;whiteSpace=wrap;html=1;fillColor=#f5f5f5;strokeColor=#bfbfbf;" vertex="1" parent="lane_3">
          <mxGeometry x="800" y="15" width="160" height="60" as_="geometry" />
        </mxCell>
        <mxCell id="s1-5" value="生成月卡账单" style="rounded=1;whiteSpace=wrap;html=1;fillColor=#f5f5f5;strokeColor=#bfbfbf;" vertex="1" parent="lane_3">
          <mxGeometry x="980" y="15" width="160" height="60" as_="geometry" />
        </mxCell>
        <mxCell id="s1-6" value="发送批准通知" style="rounded=1;whiteSpace=wrap;html=1;fillColor=#f5f5f5;strokeColor=#bfbfbf;" vertex="1" parent="lane_3">
          <mxGeometry x="1160" y="15" width="160" height="60" as_="geometry" />
        </mxCell>
        <mxCell id="s1-7" value="发送拒绝通知" style="rounded=1;whiteSpace=wrap;html=1;fillColor=#f5f5f5;strokeColor=#bfbfbf;" vertex="1" parent="lane_3">
          <mxGeometry x="1340" y="15" width="160" height="60" as_="geometry" />
        </mxCell>
        <mxCell id="s1-8" value="处理支付" style="rounded=1;whiteSpace=wrap;html=1;fillColor=#f5f5f5;strokeColor=#bfbfbf;" vertex="1" parent="lane_3">
          <mxGeometry x="1520" y="15" width="160" height="60" as_="geometry" />
        </mxCell>
        <mxCell id="s1-9" value="更新月卡权限" style="rounded=1;whiteSpace=wrap;html=1;fillColor=#f5f5f5;strokeColor=#bfbfbf;" vertex="1" parent="lane_3">
          <mxGeometry x="1700" y="15" width="160" height="60" as_="geometry" />
        </mxCell>
        <mxCell id="s1-10" value="同步车牌识别系统" style="rounded=1;whiteSpace=wrap;html=1;fillColor=#f5f5f5;strokeColor=#bfbfbf;" vertex="1" parent="lane_3">
          <mxGeometry x="1880" y="15" width="160" height="60" as_="geometry" />
        </mxCell>
        <mxCell id="conn_0" style="edgeStyle=orthogonalEdgeStyle;rounded=0;orthogonalLoop=1;jettySize=auto;html=1;" edge="1" parent="1" source="e1-1" target="e1-2" />
        <mxCell id="conn_1" style="edgeStyle=orthogonalEdgeStyle;rounded=0;orthogonalLoop=1;jettySize=auto;html=1;" edge="1" parent="1" source="e1-2" target="e1-3" />
        <mxCell id="conn_2" style="edgeStyle=orthogonalEdgeStyle;rounded=0;orthogonalLoop=1;jettySize=auto;html=1;" edge="1" parent="1" source="e1-3" target="e1-4" />
        <mxCell id="conn_3" style="edgeStyle=orthogonalEdgeStyle;rounded=0;orthogonalLoop=1;jettySize=auto;html=1;" edge="1" parent="1" source="e1-7" target="e1-8" />
        <mxCell id="conn_4" style="edgeStyle=orthogonalEdgeStyle;rounded=0;orthogonalLoop=1;jettySize=auto;html=1;" edge="1" parent="1" source="e1-8" target="e1-9" />
        <mxCell id="conn_5" style="edgeStyle=orthogonalEdgeStyle;rounded=0;orthogonalLoop=1;jettySize=auto;html=1;" edge="1" parent="1" source="e1-9" target="e1-10" />
        <mxCell id="conn_6" style="edgeStyle=orthogonalEdgeStyle;rounded=0;orthogonalLoop=1;jettySize=auto;html=1;" edge="1" parent="1" source="e1-10" target="e1-11" />
        <mxCell id="conn_7" style="edgeStyle=orthogonalEdgeStyle;rounded=0;orthogonalLoop=1;jettySize=auto;html=1;" edge="1" parent="1" source="e1-11" target="e1-12" />
        <mxCell id="conn_8" style="edgeStyle=orthogonalEdgeStyle;rounded=0;orthogonalLoop=1;jettySize=auto;html=1;" edge="1" parent="1" source="e1-12" target="e1-13" />
        <mxCell id="conn_9" style="edgeStyle=orthogonalEdgeStyle;rounded=0;orthogonalLoop=1;jettySize=auto;html=1;" edge="1" parent="1" source="a1-1" target="a1-2" />
        <mxCell id="conn_10" style="edgeStyle=orthogonalEdgeStyle;rounded=0;orthogonalLoop=1;jettySize=auto;html=1;" edge="1" parent="1" source="a1-2" target="a1-3" />
        <mxCell id="conn_11" style="edgeStyle=orthogonalEdgeStyle;rounded=0;orthogonalLoop=1;jettySize=auto;html=1;" edge="1" parent="1" source="f1-1" target="f1-2" />
        <mxCell id="conn_12" style="edgeStyle=orthogonalEdgeStyle;rounded=0;orthogonalLoop=1;jettySize=auto;html=1;" edge="1" parent="1" source="f1-3" target="f1-4" />
        <mxCell id="conn_13" style="edgeStyle=orthogonalEdgeStyle;rounded=0;orthogonalLoop=1;jettySize=auto;html=1;" edge="1" parent="1" source="s1-1" target="s1-2" />
        <mxCell id="conn_14" style="edgeStyle=orthogonalEdgeStyle;rounded=0;orthogonalLoop=1;jettySize=auto;html=1;" edge="1" parent="1" source="s1-3" target="s1-4" />
        <mxCell id="conn_15" style="edgeStyle=orthogonalEdgeStyle;rounded=0;orthogonalLoop=1;jettySize=auto;html=1;" edge="1" parent="1" source="s1-4" target="s1-5" />
        <mxCell id="conn_16" style="edgeStyle=orthogonalEdgeStyle;rounded=0;orthogonalLoop=1;jettySize=auto;html=1;" edge="1" parent="1" source="s1-5" target="s1-6" />
        <mxCell id="conn_17" style="edgeStyle=orthogonalEdgeStyle;rounded=0;orthogonalLoop=1;jettySize=auto;html=1;" edge="1" parent="1" source="s1-8" target="s1-9" />
        <mxCell id="conn_18" style="edgeStyle=orthogonalEdgeStyle;rounded=0;orthogonalLoop=1;jettySize=auto;html=1;" edge="1" parent="1" source="s1-9" target="s1-10" />
        <mxCell id="conn_19" style="edgeStyle=orthogonalEdgeStyle;rounded=0;orthogonalLoop=1;jettySize=auto;html=1;" edge="1" parent="1" source="e1-4" target="s1-1" />
        <mxCell id="conn_20" style="edgeStyle=orthogonalEdgeStyle;rounded=0;orthogonalLoop=1;jettySize=auto;html=1;" edge="1" parent="1" source="s1-2" target="a1-1" />
        <mxCell id="conn_21" style="edgeStyle=orthogonalEdgeStyle;rounded=0;orthogonalLoop=1;jettySize=auto;html=1;" edge="1" parent="1" source="a1-3" target="s1-3" />
        <mxCell id="conn_22" style="edgeStyle=orthogonalEdgeStyle;rounded=0;orthogonalLoop=1;jettySize=auto;html=1;" edge="1" parent="1" source="a1-3" target="s1-7" />
        <mxCell id="conn_23" style="edgeStyle=orthogonalEdgeStyle;rounded=0;orthogonalLoop=1;jettySize=auto;html=1;" edge="1" parent="1" source="s1-5" target="f1-1" />
        <mxCell id="conn_24" style="edgeStyle=orthogonalEdgeStyle;rounded=0;orthogonalLoop=1;jettySize=auto;html=1;" edge="1" parent="1" source="f1-2" target="s1-6" />
        <mxCell id="conn_25" style="edgeStyle=orthogonalEdgeStyle;rounded=0;orthogonalLoop=1;jettySize=auto;html=1;" edge="1" parent="1" source="s1-6" target="e1-7" />
        <mxCell id="conn_26" style="edgeStyle=orthogonalEdgeStyle;rounded=0;orthogonalLoop=1;jettySize=auto;html=1;" edge="1" parent="1" source="s1-7" target="e1-6" />
        <mxCell id="conn_27" style="edgeStyle=orthogonalEdgeStyle;rounded=0;orthogonalLoop=1;jettySize=auto;html=1;" edge="1" parent="1" source="e1-10" target="s1-8" />
        <mxCell id="conn_28" style="edgeStyle=orthogonalEdgeStyle;rounded=0;orthogonalLoop=1;jettySize=auto;html=1;" edge="1" parent="1" source="s1-8" target="f1-3" />
        <mxCell id="conn_29" style="edgeStyle=orthogonalEdgeStyle;rounded=0;orthogonalLoop=1;jettySize=auto;html=1;" edge="1" parent="1" source="e1-13" target="f1-4" />
      </root>
    </mxGraphModel>
  </diagram>
</mxfile>